<svg width="18" height="18" viewBox="0 0 18 18" fill="none" xmlns="http://www.w3.org/2000/svg">
<path d="M13.5 2.25H4.5C2.84315 2.25 1.5 3.59315 1.5 5.25V12.75C1.5 14.4069 2.84315 15.75 4.5 15.75H13.5C15.1569 15.75 16.5 14.4069 16.5 12.75V5.25C16.5 3.59315 15.1569 2.25 13.5 2.25Z" stroke="#CBD5E1" stroke-width="1.5" stroke-linecap="round" stroke-linejoin="round"/>
<path d="M5.25 12.75L12.75 5.25" stroke="#CBD5E1" stroke-width="1.5" stroke-linecap="round" stroke-linejoin="round"/>
<path d="M6 8.25C6.82843 8.25 7.5 7.57843 7.5 6.75C7.5 5.92157 6.82843 5.25 6 5.25C5.17157 5.25 4.5 5.92157 4.5 6.75C4.5 7.57843 5.17157 8.25 6 8.25Z" stroke="#CBD5E1" stroke-width="1.5" stroke-linecap="round" stroke-linejoin="round"/>
<path d="M12 12.75C12.8284 12.75 13.5 12.0784 13.5 11.25C13.5 10.4216 12.8284 9.75 12 9.75C11.1716 9.75 10.5 10.4216 10.5 11.25C10.5 12.0784 11.1716 12.75 12 12.75Z" stroke="#CBD5E1" stroke-width="1.5" stroke-linecap="round" stroke-linejoin="round"/>
</svg>
