<svg width="144" height="24" viewBox="0 0 144 24" fill="none" xmlns="http://www.w3.org/2000/svg">
<path d="M17.5774 5.97094C18.6905 4.65453 19.7347 3.26928 21.0306 2.13176C22.5401 0.806367 24.2381 -0.0578309 26.2684 0.00301873C27.5765 0.0422551 28.7758 0.482501 29.8832 1.19807C31.7159 2.38214 33.2055 3.92533 34.2423 5.88881C35.7181 8.68291 35.4263 11.3832 33.6657 13.9366C32.5468 15.5589 31.0854 16.8344 29.5869 18.0541C27.2452 19.96 24.7653 21.6429 22.0093 22.8486C21.3397 23.1415 20.665 23.4268 19.9415 23.5535C19.9752 23.2536 20.2436 23.2253 20.4303 23.1119C21.8997 22.2195 22.7158 20.8881 22.931 19.1467C22.9448 19.034 22.9198 18.9269 22.9066 18.8172C22.8771 18.4385 22.8325 18.0594 22.94 17.686C23.2042 17.6384 23.2094 17.6424 23.2526 17.9304C23.3517 18.5878 23.3472 18.5801 23.92 18.222C26.1847 16.8068 28.3019 15.1902 30.1734 13.2486C30.8783 12.5171 31.4982 11.7128 31.8548 10.7156C32.2345 9.65284 32.1206 8.62771 31.6402 7.65977C30.7869 5.94002 29.5192 4.61097 27.8686 3.70587C26.4602 2.93378 25.069 3.0741 23.7827 4.00912C22.0539 5.26568 20.7641 6.96216 19.5471 8.72148C19.5061 8.75706 19.4583 8.77235 19.405 8.76736C18.7512 7.91015 18.1412 7.01968 17.5457 6.11758C17.5316 6.06271 17.5438 6.01417 17.5774 5.97094Z" fill="#B08C60"/>
<path d="M17.5398 5.96234C17.5382 5.99821 17.5373 6.03407 17.5373 6.06994C17.5392 6.16392 17.5232 6.25657 17.4668 6.32996C16.8937 7.07517 16.4334 7.90573 15.8423 8.63765C15.791 8.65393 15.7404 8.65426 15.6895 8.63633C15.25 8.20262 14.9229 7.67161 14.541 7.18808C13.8404 6.30074 13.0556 5.49609 12.2486 4.72132C10.4175 2.96457 8.66487 2.73344 6.74213 4.0422C5.4335 4.93286 4.35328 6.07924 3.59533 7.5132C2.73391 9.14243 3.05907 11.0546 4.43657 12.5935C6.47239 14.8677 8.82376 16.729 11.4061 18.2852C11.6214 18.415 11.8367 18.5442 12.0263 18.7142C12.0849 18.7724 12.1317 18.8394 12.1657 18.9158C12.3816 19.9785 12.6286 21.0193 13.3378 21.8834C13.7123 22.3397 14.1611 22.6814 14.616 23.0297C14.757 23.1377 15.0046 23.1652 14.9684 23.4419C13.39 23.0732 11.9645 22.3191 10.5732 21.5058C7.94729 19.9709 5.51615 18.1514 3.31503 16.0084C2.08392 14.8099 1.00274 13.4981 0.421947 11.826C-0.302684 9.74052 -0.0771576 7.72275 0.969105 5.81257C2.08104 3.78251 3.63185 2.17951 5.5799 1.01188C8.40795 -0.682768 11.5695 -0.227141 14.2329 2.21571C15.463 3.34415 16.4904 4.66354 17.5398 5.96234Z" fill="#94A16F"/>
<path d="M130.351 9.45787C130.351 12.4959 130.345 15.5342 130.356 18.5722C130.359 19.3448 130.094 19.9227 129.418 20.2737C128.291 20.8595 127.172 20.1911 127.134 18.8813C127.105 17.8845 127.125 16.8863 127.124 15.8886C127.124 12.0479 127.125 8.2073 127.121 4.36634C127.121 3.93706 127.139 3.52109 127.39 3.15374C128.02 2.23422 129.044 2.1363 129.833 3.03851C130.538 3.84414 131.131 4.75867 131.759 5.6359C133.015 7.39069 134.262 9.15247 135.563 10.9822C136.597 9.53081 137.592 8.13736 138.584 6.74126C139.394 5.60059 140.198 4.45493 141.011 3.31593C141.544 2.56892 142.178 2.33546 142.95 2.58424C143.603 2.79439 143.994 3.39054 143.996 4.27343C144.003 9.06188 143.998 13.8503 144 18.6385C144 19.4224 143.776 20.0955 143.024 20.3816C142.394 20.6211 141.787 20.4838 141.332 19.925C140.989 19.504 140.929 18.9875 140.93 18.452C140.934 15.6837 140.931 12.9155 140.93 10.1473C140.93 9.90814 140.93 9.66935 140.93 9.20742C139.832 10.6545 138.862 11.932 137.893 13.2096C137.537 13.6785 137.201 14.1661 136.821 14.6123C135.834 15.7703 134.861 15.7374 133.982 14.4901C132.992 13.0854 132.042 11.6499 131.073 10.2292C130.882 9.94877 130.683 9.67401 130.487 9.39659C130.442 9.41724 130.397 9.43755 130.351 9.45787Z" fill="#334155"/>
<path d="M111.774 11.5811C111.774 9.29647 111.764 7.01155 111.778 4.72696C111.787 3.24678 112.276 2.75074 113.679 2.74941C116.506 2.74643 119.333 2.74146 122.16 2.75207C123.015 2.75538 123.583 3.15693 123.788 3.83567C124.006 4.56084 123.774 5.35597 123.219 5.76945C122.828 6.06157 122.376 6.08942 121.915 6.08909C119.855 6.08677 117.794 6.11263 115.734 6.07384C115.149 6.0629 115 6.25289 115.033 6.82553C115.079 7.61734 115.088 8.41745 115.032 9.20794C114.986 9.85618 115.223 9.97986 115.799 9.96726C117.595 9.9278 119.393 9.94836 121.19 9.95333C122.268 9.95631 122.924 10.5585 122.956 11.5549C122.988 12.5632 122.304 13.2831 121.226 13.3275C120.508 13.357 119.789 13.3328 119.07 13.3328C117.944 13.3328 116.818 13.354 115.692 13.3232C115.211 13.3099 115.005 13.4283 115.034 13.9747C115.077 14.8166 115.07 15.6638 115.035 16.5067C115.015 16.9944 115.162 17.1397 115.637 17.1347C117.913 17.1108 120.189 17.1281 122.465 17.1238C122.96 17.1228 123.421 17.2166 123.799 17.5667C124.335 18.0635 124.505 18.6868 124.281 19.3888C124.051 20.1086 123.511 20.4634 122.804 20.478C121.487 20.5052 120.168 20.4903 118.851 20.491C117.15 20.4923 115.449 20.4933 113.748 20.4919C112.276 20.4906 111.791 20.0065 111.786 18.5094C111.78 16.2 111.785 13.8905 111.785 11.5811C111.781 11.5811 111.778 11.5811 111.774 11.5811Z" fill="#334155"/>
<path d="M101.725 21.1641C100.163 21.1101 98.3458 20.747 96.7189 19.6572C96.0814 19.2302 95.6368 18.6938 95.6564 17.834C95.6714 17.1696 95.9227 16.6796 96.4756 16.3609C97.0211 16.0462 97.5272 16.1555 98.0278 16.5075C99.5054 17.5473 101.151 17.9894 102.925 17.9434C103.533 17.9277 104.107 17.772 104.634 17.4497C106.104 16.5499 106.116 14.745 104.651 13.8632C103.6 13.2315 102.416 12.9811 101.269 12.6301C100.257 12.3207 99.2666 11.9667 98.3105 11.4863C95.0465 9.84711 95.2673 5.25625 97.7368 3.37203C100.163 1.52048 104.651 1.47381 107.042 3.3587C107.194 3.47871 107.34 3.61339 107.465 3.76308C107.974 4.37381 107.992 5.1509 107.523 5.7463C107.049 6.34704 106.341 6.47239 105.651 6.03467C104.284 5.16757 102.801 4.89021 101.23 5.05322C99.9208 5.18924 99.0573 6.10935 99.0701 7.30048C99.0804 8.25293 99.6964 8.71164 100.407 9.07069C101.708 9.72743 103.139 9.97612 104.503 10.4368C105.604 10.8086 106.694 11.2159 107.576 12.0237C109.793 14.0559 109.416 17.99 106.846 19.8079C105.602 20.6877 103.905 21.1691 101.725 21.1641Z" fill="#334155"/>
<path d="M86.5091 10.1443C87.448 8.7176 88.3528 7.34587 89.2545 5.97214C89.7818 5.16908 90.3058 4.36435 90.8283 3.55796C91.2062 2.97498 91.7155 2.66867 92.4078 2.70596C93.0677 2.74125 93.5567 3.06654 93.8608 3.65518C94.1568 4.22818 93.9812 4.75357 93.6418 5.25998C91.9014 7.85661 90.178 10.4652 88.4283 13.0549C88.1647 13.4451 88.0478 13.827 88.0539 14.2978C88.0728 15.7933 88.0725 17.2896 88.0545 18.7852C88.0401 19.9868 87.456 20.6177 86.4217 20.6057C85.3938 20.5937 84.7841 19.9292 84.7744 18.7715C84.7619 17.251 84.7616 15.7298 84.7764 14.2092C84.7805 13.7927 84.68 13.4501 84.4527 13.0995C82.7903 10.5391 81.1459 7.96582 79.4993 5.39448C78.8699 4.41163 78.9951 3.52833 79.8352 2.95533C80.7034 2.36269 81.5868 2.59708 82.2325 3.59392C83.5584 5.64053 84.883 7.68814 86.2095 9.73442C86.2862 9.85261 86.3755 9.96215 86.5091 10.1443Z" fill="#334155"/>
<path d="M68.5806 11.6465C68.5806 9.21618 68.5742 6.78556 68.5844 4.35526C68.5876 3.56272 69.0119 2.99207 69.6792 2.80495C70.3496 2.61683 70.9886 2.88443 71.3511 3.48754C71.5533 3.82436 71.5489 4.19232 71.5489 4.56491C71.5485 8.48325 71.5638 12.4019 71.5345 16.3199C71.5298 16.9678 71.6791 17.1592 72.321 17.144C74.276 17.0969 76.233 17.1221 78.1894 17.133C79.2296 17.139 79.9737 17.7235 80.074 18.578C80.2034 19.6763 79.4921 20.4685 78.2993 20.4824C76.3432 20.5049 74.3869 20.489 72.4305 20.489C71.6909 20.489 70.9513 20.4976 70.212 20.4857C69.1208 20.4681 68.5866 19.9167 68.5831 18.789C68.5755 16.408 68.5806 14.0274 68.5806 11.6465Z" fill="#334155"/>
<path d="M14.9982 23.5248C13.9958 22.8633 13.1057 22.0818 12.6183 20.8931C12.3601 20.2638 12.1745 19.6098 12.1685 18.9121C12.4595 18.8103 12.6695 19.0227 12.896 19.1407C13.9335 19.6821 14.977 20.2036 16.1167 20.4579C17.0624 20.8022 18.0085 20.7852 18.9546 20.4606C19.7527 20.3625 20.4735 20.0105 21.1875 19.6544C21.6477 19.4248 22.1351 19.2543 22.5644 18.9527C22.6659 18.8813 22.7836 18.8286 22.9113 18.8972C22.924 20.16 22.4704 21.2245 21.7106 22.1653C21.1988 22.7987 20.557 23.235 19.8687 23.6066C18.2369 24.1605 16.6136 24.1264 14.9982 23.5248Z" fill="#627554"/>
<path d="M19.4057 8.71258C20.9365 11.0729 22.2525 13.538 22.852 16.345C22.9358 16.7374 22.9662 17.142 23.0211 17.5413C23.0131 17.9863 23.0051 18.4313 22.9967 18.8763C21.9178 19.5109 20.7917 20.0345 19.6095 20.4291C19.4234 20.4914 19.2408 20.5607 19.0405 20.5335C19.002 20.404 19.0822 20.3201 19.1612 20.2519C19.9853 19.5371 20.0626 18.5851 19.9314 17.5863C19.7353 16.0935 19.1602 14.7319 18.5052 13.4034C18.1994 12.7831 17.8339 12.1953 17.5608 11.5567C17.5467 11.5024 17.5402 11.447 17.5399 11.3907C17.908 10.3913 18.5248 9.55525 19.1804 8.74538C19.2125 8.70562 19.2764 8.70495 19.33 8.70827C19.3553 8.71258 19.3804 8.71423 19.4057 8.71258Z" fill="#94A16F"/>
<path d="M19.294 8.68924C18.6697 9.53551 18.0804 10.4062 17.6153 11.3631C17.4631 11.4358 17.3774 11.3212 17.3124 11.2197C16.8209 10.4528 16.3527 9.66985 15.8504 8.91069C15.7911 8.82124 15.7599 8.70867 15.8137 8.5951C16.2801 7.66441 16.8926 6.84093 17.5188 6.02783C18.1845 6.86036 18.8598 7.68585 19.294 8.68924Z" fill="#627554"/>
<path d="M11.949 18.8163C12.1376 18.0753 12.0279 17.3067 12.1874 16.5545C12.7602 13.8524 14.0318 11.48 15.4521 9.17117C15.5472 9.01672 15.6417 8.86227 15.7364 8.70782C15.7633 8.7065 15.7905 8.70683 15.8173 8.70881C16.4458 9.60291 16.9436 10.5882 17.6468 11.43C17.6478 11.4695 17.6485 11.509 17.6494 11.5485C17.1073 12.577 16.5124 13.5778 16.0703 14.6583C15.5233 15.9953 15.0287 17.3416 15.1911 18.838C15.239 19.2799 15.3997 19.6396 15.6973 19.956C15.8519 20.1207 16.0754 20.2551 16.0421 20.5396C15.1015 20.3954 14.2546 19.9781 13.4004 19.5875C12.9472 19.3801 12.507 19.1439 12.0606 18.9207C12.0237 18.8858 11.9865 18.8512 11.949 18.8163Z" fill="#B08C60"/>
<path fill-rule="evenodd" clip-rule="evenodd" d="M49.0237 18.4212C48.4845 19.6243 49.2377 20.8702 50.4305 20.8676C51.1972 20.8706 51.7838 20.5724 52.1212 19.8247C52.2348 19.5734 52.3551 19.3253 52.4755 19.0772C52.6359 18.7464 52.7963 18.4156 52.9405 18.0775C53.0788 17.753 53.275 17.6513 53.6092 17.6526C56.339 17.6636 59.0685 17.6666 61.798 17.6493C62.1983 17.6466 62.4103 17.7929 62.5696 18.1586C62.8461 18.7935 63.1458 19.4198 63.471 20.0299C63.8868 20.8104 64.6615 21.0587 65.4547 20.7044C66.4686 20.2516 66.7722 19.2756 66.2314 18.1662C65.4954 16.6563 64.7584 15.1469 64.0214 13.6375C62.4708 10.4619 60.9202 7.28622 59.3792 4.10568C59.0408 3.40758 58.6231 2.90427 57.8064 2.89563C56.9775 2.88699 56.4747 3.33909 56.1157 4.06646C55.0466 6.23222 53.9717 8.3949 52.8968 10.5576C52.2785 11.8014 51.6603 13.0453 51.0432 14.2897C50.8629 14.6533 50.6804 15.0159 50.498 15.3785C49.9913 16.3854 49.4846 17.3925 49.0237 18.4212ZM60.5761 14.02C59.6463 11.8973 58.7458 9.84132 57.7894 7.65721L54.766 14.02H60.5761Z" fill="#334155"/>
</svg>
