<svg width="24" height="24" viewBox="0 0 24 24" fill="none" xmlns="http://www.w3.org/2000/svg">
<path d="M12.7003 16.1899V17.3C12.7003 17.388 12.6829 17.4751 12.6492 17.5564C12.6156 17.6377 12.5662 17.7117 12.504 17.7739C12.4418 17.8361 12.3679 17.8853 12.2867 17.9189C12.2054 17.9526 12.1182 17.97 12.0302 17.97C11.9423 17.97 11.8551 17.9526 11.7738 17.9189C11.6925 17.8853 11.6187 17.8361 11.5565 17.7739C11.4943 17.7117 11.4449 17.6377 11.4113 17.5564C11.3776 17.4751 11.3602 17.388 11.3602 17.3V16.1602C10.9165 16.0873 10.4917 15.9269 10.1106 15.6882C9.72943 15.4496 9.39958 15.1374 9.14023 14.77C9.04577 14.6501 8.99311 14.5027 8.99023 14.3501C8.99148 14.2643 9.00997 14.1796 9.04459 14.1011C9.0792 14.0226 9.12927 13.9518 9.19177 13.8931C9.25428 13.8343 9.32794 13.7888 9.40842 13.759C9.4889 13.7293 9.57455 13.7159 9.66025 13.72C9.74504 13.7202 9.82883 13.7383 9.90631 13.7727C9.98379 13.8071 10.0532 13.8574 10.1102 13.9202C10.4326 14.3377 10.8657 14.6564 11.3602 14.8401V12.29C10.0302 11.77 9.36023 10.99 9.36023 9.97998C9.38027 9.43927 9.5928 8.9235 9.9595 8.52563C10.3262 8.12777 10.8229 7.87404 11.3602 7.81006V6.70996C11.3602 6.62198 11.3776 6.5349 11.4113 6.45361C11.4449 6.37233 11.4943 6.29854 11.5565 6.23633C11.6187 6.17411 11.6925 6.12474 11.7738 6.09106C11.8551 6.05739 11.9423 6.04004 12.0302 6.04004C12.1182 6.04004 12.2054 6.05739 12.2867 6.09106C12.3679 6.12474 12.4418 6.17411 12.504 6.23633C12.5662 6.29854 12.6156 6.37233 12.6492 6.45361C12.6829 6.5349 12.7003 6.62198 12.7003 6.70996V7.80005C13.0724 7.85836 13.4289 7.99111 13.7485 8.19043C14.0681 8.38975 14.3442 8.65144 14.5602 8.95996C14.6555 9.07243 14.7117 9.21296 14.7202 9.36011C14.7229 9.4463 14.7084 9.53202 14.6776 9.61255C14.6467 9.69308 14.6002 9.76675 14.5406 9.8291C14.481 9.89146 14.4096 9.94133 14.3306 9.97583C14.2516 10.0103 14.1665 10.0287 14.0802 10.03C13.99 10.0276 13.9013 10.0057 13.8202 9.96606C13.7391 9.92638 13.6675 9.86982 13.6102 9.80005C13.3718 9.50217 13.0575 9.27424 12.7003 9.14014V11.3901L12.9503 11.49C14.2203 11.99 15.0103 12.7101 15.0103 13.8501C14.9954 14.4609 14.7481 15.043 14.3189 15.4778C13.8897 15.9126 13.3108 16.1672 12.7003 16.1899ZM11.3602 10.8101V9.17993C11.1988 9.23851 11.0599 9.3463 10.963 9.48804C10.8662 9.62977 10.8162 9.79834 10.8203 9.96997C10.8173 10.1477 10.8669 10.3224 10.963 10.4719C11.0591 10.6214 11.1973 10.739 11.3602 10.8101ZM13.5502 13.8801C13.5502 13.4001 13.2203 13.1101 12.7003 12.8801V14.8801C12.9387 14.844 13.1561 14.7228 13.3123 14.5391C13.4685 14.3553 13.553 14.1213 13.5502 13.8801Z" fill="#929292"/>
<path d="M18 3.05005H6C4.93913 3.05005 3.92172 3.47153 3.17157 4.22168C2.42142 4.97183 2 5.98918 2 7.05005V17.05C2 18.1109 2.42142 19.1283 3.17157 19.8784C3.92172 20.6286 4.93913 21.05 6 21.05H18C19.0609 21.05 20.0783 20.6286 20.8284 19.8784C21.5786 19.1283 22 18.1109 22 17.05V7.05005C22 5.98918 21.5786 4.97183 20.8284 4.22168C20.0783 3.47153 19.0609 3.05005 18 3.05005Z" stroke="#929292" stroke-width="1.5" stroke-linecap="round" stroke-linejoin="round"/>
</svg>
