<svg width="18" height="18" viewBox="0 0 18 18" fill="none" xmlns="http://www.w3.org/2000/svg">
<path d="M9.02519 11.7416V11.6607V11.1601V9.6601V8.89222L9.72745 9.20283C9.95014 9.30133 10.1813 9.43287 10.3591 9.62732C10.5496 9.8356 10.662 10.098 10.6627 10.4073C10.6627 10.4082 10.6627 10.4092 10.6627 10.4101H10.1627L9.02519 11.7416ZM9.02519 11.7416V12.1425V12.975L9.02498 12.976C9.02472 12.9766 9.02442 12.9769 9.02445 12.9769L9.02364 12.9773L9.02268 12.9775L9.02172 12.9773L9.02092 12.9769C9.02095 12.9769 9.02065 12.9766 9.02038 12.976L9.02017 12.975V12.1201V11.8492V11.6955V11.1301V9.21753V8.87616L8.70224 8.75186C7.81012 8.40306 7.52394 7.95866 7.52021 7.49422C7.53289 7.21118 7.64513 6.94158 7.83729 6.73308C8.00488 6.55125 8.22377 6.42624 8.46353 6.37359L8.34958 6.41495C8.13007 6.49463 7.9412 6.64121 7.8095 6.83387C7.67965 7.02384 7.61184 7.24921 7.61513 7.47904C7.61324 7.70745 7.67795 7.93183 7.80169 8.12432C7.92724 8.31961 8.10773 8.47312 8.32024 8.56583L9.02017 8.87118V8.10754V6.88495V6.30153V6.17155V5.85754V5.03247L9.02038 5.03155L9.02092 5.0308L9.02172 5.03024L9.02268 5.03003L9.02365 5.03024L9.02444 5.0308L9.02498 5.03155L9.02519 5.03247V5.85004V6.13331V6.27779V6.8551V8.5426V8.8813L9.33973 9.00693L9.52723 9.08182L9.52723 9.08183L9.52953 9.08273C9.96921 9.25584 10.279 9.44988 10.4754 9.66211C10.6587 9.86024 10.7563 10.0871 10.7577 10.3815C10.7482 10.7101 10.6144 11.023 10.3834 11.2571C10.2592 11.3828 10.112 11.4807 9.95135 11.5466L9.02519 11.7416Z" stroke="#CBD5E1"/>
<path d="M13.5 2.2876H4.5C3.70435 2.2876 2.94129 2.60371 2.37868 3.16632C1.81607 3.72893 1.5 4.49195 1.5 5.2876V12.7876C1.5 13.5832 1.81607 14.3463 2.37868 14.9089C2.94129 15.4715 3.70435 15.7876 4.5 15.7876H13.5C14.2956 15.7876 15.0587 15.4715 15.6213 14.9089C16.1839 14.3463 16.5 13.5832 16.5 12.7876V5.2876C16.5 4.49195 16.1839 3.72893 15.6213 3.16632C15.0587 2.60371 14.2956 2.2876 13.5 2.2876Z" stroke="#CBD5E1" stroke-width="1.5" stroke-linecap="round" stroke-linejoin="round"/>
</svg>
