<svg width="19" height="23" viewBox="0 0 19 23" fill="none" xmlns="http://www.w3.org/2000/svg">
<path d="M9.50008 12.8573C12.9757 12.8573 15.7647 10.0686 15.7647 6.59477H14.2647C14.2647 9.23979 12.1476 11.3573 9.50008 11.3573V12.8573ZM3.23551 6.59477C3.23551 10.0686 6.0256 12.8573 9.50008 12.8573V11.3573C6.85351 11.3573 4.73551 9.2397 4.73551 6.59477H3.23551ZM9.50008 0.333252C6.02579 0.333252 3.23551 3.1207 3.23551 6.59477H4.73551C4.73551 3.95002 6.85333 1.83325 9.50008 1.83325V0.333252ZM15.7647 6.59477C15.7647 3.1208 12.9755 0.333252 9.50008 0.333252V1.83325C12.1478 1.83325 14.2647 3.94992 14.2647 6.59477H15.7647ZM0.416748 18.3488C0.416748 19.2444 0.725222 20.0024 1.28051 20.6084C1.82032 21.1974 2.56155 21.6093 3.38866 21.9022C5.0329 22.4845 7.22267 22.6666 9.50008 22.6666V21.1666C7.25913 21.1666 5.28224 20.9815 3.88939 20.4882C3.19797 20.2434 2.70306 19.9405 2.38636 19.5949C2.08515 19.2662 1.91675 18.87 1.91675 18.3488H0.416748ZM9.50008 14.0561C7.236 14.0561 5.04705 14.2315 3.40073 14.8065C2.57268 15.0957 1.82873 15.5038 1.28624 16.0902C0.727773 16.694 0.416748 17.4516 0.416748 18.3488H1.91675C1.91675 17.8289 2.08559 17.4351 2.38738 17.1088C2.70514 16.7653 3.20182 16.4648 3.8953 16.2226C5.29205 15.7348 7.26977 15.5561 9.50008 15.5561V14.0561ZM18.5834 18.3738C18.5834 17.4784 18.275 16.7203 17.7198 16.1144C17.1801 15.5253 16.439 15.1134 15.6119 14.8205C13.9678 14.2382 11.778 14.0561 9.50008 14.0561V15.5561C11.7416 15.5561 13.7184 15.7412 15.1111 16.2344C15.8025 16.4793 16.2973 16.7822 16.6139 17.1277C16.915 17.4564 17.0834 17.8526 17.0834 18.3738H18.5834ZM9.50008 22.6666C11.7642 22.6666 13.9531 22.4911 15.5994 21.9162C16.4275 21.627 17.1714 21.2189 17.7139 20.6324C18.2724 20.0287 18.5834 19.2711 18.5834 18.3738H17.0834C17.0834 18.8938 16.9146 19.2876 16.6128 19.6139C16.295 19.9574 15.7983 20.2579 15.1049 20.5001C13.7081 20.9879 11.7304 21.1666 9.50008 21.1666V22.6666Z" fill="#94A3B8"/>
</svg>
